<?xml version="1.0" encoding="UTF-8"?>
<svg version="1.1" xmlns="http://www.w3.org/2000/svg" width="512" height="512">
<path d="M0 0 C2.8079149 -0.00323508 5.6158039 -0.01241761 8.42370605 -0.02124023 C15.21095761 -0.03888283 21.9980307 -0.03524989 28.78528881 -0.02358967 C34.30906304 -0.01449879 39.83278779 -0.01335556 45.35656738 -0.01768494 C46.14738716 -0.01829787 46.93820694 -0.0189108 47.75299096 -0.01954231 C49.36030167 -0.02082141 50.96761236 -0.02211826 52.57492304 -0.02343267 C67.59206243 -0.03479669 82.60910362 -0.02179076 97.6262269 -0.00023121 C110.46831496 0.01763597 123.3102583 0.01453068 136.15234375 -0.00390625 C151.12142689 -0.02538725 166.09042431 -0.03369844 181.05952072 -0.0214572 C182.66040801 -0.02018321 184.26129531 -0.01892572 185.86218262 -0.01768494 C187.04320726 -0.01675928 187.04320726 -0.01675928 188.24809098 -0.01581493 C193.75529964 -0.01238363 199.2624532 -0.01814201 204.76965332 -0.02760315 C211.49534172 -0.03890534 218.22084379 -0.03561269 224.94651127 -0.01448017 C228.3679535 -0.00407859 231.78883482 -0.00186766 235.21031189 -0.01307678 C253.77905216 -0.06826019 271.87682742 0.83410785 289.359375 7.70507812 C290.12975098 7.99987061 290.90012695 8.29466309 291.69384766 8.59838867 C316.64362231 18.4947396 338.53829277 36.6520695 352.609375 59.51757812 C353.2075 60.41992188 353.805625 61.32226562 354.421875 62.25195312 C358.29385523 68.37106474 361.13964146 74.8043067 363.796875 81.51757812 C364.11793213 82.30455078 364.43898926 83.09152344 364.76977539 83.90234375 C371.80968252 102.45234444 372.19116106 121.30934817 372.12695312 140.90820312 C372.1301882 143.71611803 372.13937073 146.52400703 372.14819336 149.33190918 C372.16583596 156.11916074 372.16220302 162.90623383 372.1505428 169.69349194 C372.14145191 175.21726616 372.14030868 180.74099092 372.14463806 186.26477051 C372.14525099 187.05559029 372.14586393 187.84641007 372.14649543 188.66119409 C372.14777453 190.26850479 372.14907139 191.87581549 372.1503858 193.48312616 C372.16174981 208.50026556 372.14874388 223.51730675 372.12718433 238.53443003 C372.10931716 251.37651808 372.11242245 264.21846143 372.13085938 277.06054688 C372.15234037 292.02963002 372.16065157 306.99862744 372.14841032 321.96772385 C372.14713633 323.56861113 372.14587884 325.16949843 372.14463806 326.77038574 C372.14402096 327.5577355 372.14340386 328.34508526 372.14276806 329.15629411 C372.13933675 334.66350276 372.14509514 340.17065633 372.15455627 345.67785645 C372.16585846 352.40354485 372.16256582 359.12904692 372.1414333 365.85471439 C372.13103172 369.27615662 372.12882078 372.69703794 372.14002991 376.11851501 C372.20355042 397.49261839 370.26082387 416.83081388 361.609375 436.51757812 C361.32610352 437.17177734 361.04283203 437.82597656 360.75097656 438.5 C350.80797193 461.02282818 333.62619532 480.69113631 312.609375 493.51757812 C311.536875 494.20078125 310.464375 494.88398438 309.359375 495.58789062 C302.9716746 499.47669897 296.46986287 502.5955891 289.484375 505.26757812 C288.80036621 505.53715332 288.11635742 505.80672852 287.41162109 506.08447266 C269.09659228 512.72699595 250.47712962 513.09824875 231.21875 513.03515625 C228.4108351 513.03839133 225.6029461 513.04757386 222.79504395 513.05639648 C216.00779239 513.07403908 209.2207193 513.07040614 202.43346119 513.05874592 C196.90968696 513.04965504 191.38596221 513.04851181 185.86218262 513.05284119 C185.07136284 513.05345412 184.28054306 513.05406705 183.46575904 513.05469856 C181.85844833 513.05597766 180.25113764 513.05727451 178.64382696 513.05858892 C163.62668757 513.06995294 148.60964638 513.05694701 133.5925231 513.03538746 C120.75043504 513.01752028 107.9084917 513.02062557 95.06640625 513.0390625 C80.09732311 513.0605435 65.12832569 513.06885469 50.15922928 513.05661345 C48.55834199 513.05533946 46.95745469 513.05408197 45.35656738 513.05284119 C44.56921762 513.05222408 43.78186786 513.05160698 42.97065902 513.05097118 C37.46345036 513.04753988 31.9562968 513.05329826 26.44909668 513.0627594 C19.72340828 513.07406159 12.99790621 513.07076894 6.27223873 513.04963642 C2.8507965 513.03923484 -0.57008482 513.03702391 -3.99156189 513.04823303 C-41.29778067 513.15910132 -73.88606173 503.93242019 -101.390625 477.51757812 C-102.29683594 476.67453125 -103.20304687 475.83148438 -104.13671875 474.96289062 C-110.96444725 468.42872604 -116.35487987 461.50243366 -121.390625 453.51757812 C-122.08027344 452.43863281 -122.76992187 451.3596875 -123.48046875 450.24804688 C-127.35348984 443.86239406 -130.47204439 437.36915524 -133.140625 430.39257812 C-133.4102002 429.70856934 -133.67977539 429.02456055 -133.95751953 428.31982422 C-140.60004283 410.00479541 -140.97129563 391.38533275 -140.90820312 372.12695312 C-140.9114382 369.31903822 -140.92062073 366.51114922 -140.92944336 363.70324707 C-140.94708596 356.91599551 -140.94345302 350.12892242 -140.9317928 343.34166431 C-140.92270191 337.81789009 -140.92155868 332.29416533 -140.92588806 326.77038574 C-140.92650099 325.97956596 -140.92711393 325.18874618 -140.92774543 324.37396216 C-140.92902453 322.76665146 -140.93032139 321.15934076 -140.9316358 319.55203009 C-140.94299981 304.53489069 -140.92999388 289.5178495 -140.90843433 274.50072622 C-140.89056716 261.65863817 -140.89367245 248.81669482 -140.91210938 235.97460938 C-140.93359037 221.00552623 -140.94190157 206.03652881 -140.92966032 191.0674324 C-140.92838633 189.46654512 -140.92712884 187.86565782 -140.92588806 186.26477051 C-140.92527096 185.47742075 -140.92465386 184.69007099 -140.92401806 183.87886214 C-140.92058675 178.37165349 -140.92634514 172.86449992 -140.93580627 167.3572998 C-140.94710846 160.6316114 -140.94381582 153.90610933 -140.9226833 147.18044186 C-140.91228172 143.75899963 -140.91007078 140.33811831 -140.92127991 136.91664124 C-140.97773765 117.919101 -139.94970575 99.6471969 -132.765625 81.83007812 C-132.25793579 80.539646 -132.25793579 80.539646 -131.73999023 79.22314453 C-121.77421803 54.79427221 -103.89133662 33.34528818 -81.390625 19.51757812 C-80.31683594 18.83308594 -79.24304688 18.14859375 -78.13671875 17.44335938 C-71.7494338 13.55769935 -65.24932819 10.4388845 -58.265625 7.76757812 C-57.23961182 7.36321533 -57.23961182 7.36321533 -56.19287109 6.95068359 C-37.87784228 0.3081603 -19.25837962 -0.0630925 0 0 Z " fill="#FF6D77" transform="translate(140.390625,-0.517578125)"/>
<path d="M0 0 C0.33 0 0.66 0 1 0 C1.0917689 33.1641885 1.16214662 66.32834378 1.20426132 99.4926305 C1.20926351 103.41745049 1.21444086 107.34227023 1.21972656 111.26708984 C1.22130043 112.43901806 1.22130043 112.43901806 1.22290608 113.63462159 C1.24026084 126.24704229 1.271771 138.85938926 1.30861118 151.47176638 C1.34615844 164.43536062 1.36826481 177.39891652 1.37635398 190.36256289 C1.38181335 198.3470567 1.39898819 206.33134205 1.43166587 214.31577161 C1.45552259 220.46197513 1.45778541 226.60802326 1.45243073 232.75426674 C1.45352233 235.25824317 1.46135945 237.76222822 1.4768219 240.26615715 C1.59864349 261.02912953 -0.60025836 279.88600697 -9 299 C-9.28327148 299.65419922 -9.56654297 300.30839844 -9.85839844 300.98242188 C-19.80140307 323.50525006 -36.98317968 343.17355818 -58 356 C-59.0725 356.68320312 -60.145 357.36640625 -61.25 358.0703125 C-67.6377004 361.95912084 -74.13951213 365.07801098 -81.125 367.75 C-81.80900879 368.0195752 -82.49301758 368.28915039 -83.19775391 368.56689453 C-101.51278272 375.20941783 -120.13224538 375.58067063 -139.390625 375.51757812 C-142.1985399 375.5208132 -145.0064289 375.52999573 -147.81433105 375.53881836 C-154.60158261 375.55646096 -161.3886557 375.55282802 -168.17591381 375.5411678 C-173.69968804 375.53207691 -179.22341279 375.53093368 -184.74719238 375.53526306 C-185.53801216 375.53587599 -186.32883194 375.53648893 -187.14361596 375.53712043 C-188.75092667 375.53839953 -190.35823736 375.53969639 -191.96554804 375.5410108 C-206.98268743 375.55237481 -221.99972862 375.53936888 -237.0168519 375.51780933 C-249.85893996 375.49994216 -262.7008833 375.50304745 -275.54296875 375.52148438 C-290.51205189 375.54296537 -305.48104931 375.55127657 -320.45014572 375.53903532 C-322.05103301 375.53776133 -323.65192031 375.53650384 -325.25280762 375.53526306 C-326.04015738 375.53464596 -326.82750714 375.53402886 -327.63871598 375.53339306 C-333.14592464 375.52996175 -338.6530782 375.53572014 -344.16027832 375.54518127 C-350.88596672 375.55648346 -357.61146879 375.55319082 -364.33713627 375.5320583 C-367.7585785 375.52165672 -371.17945982 375.51944578 -374.60093689 375.53065491 C-411.90715567 375.64152319 -444.49543673 366.41484206 -472 340 C-472.90621094 339.15695312 -473.81242187 338.31390625 -474.74609375 337.4453125 C-481.57382225 330.91114792 -486.96425487 323.98485553 -492 316 C-492.68964844 314.92105469 -493.37929688 313.84210938 -494.08984375 312.73046875 C-513.67607739 280.43761905 -514.41479885 242.30422579 -508 206 C-507.83371094 205.05543945 -507.66742188 204.11087891 -507.49609375 203.13769531 C-499.60648911 160.05168776 -479.96089406 120.71751079 -451 88 C-450.21753906 87.10667969 -449.43507813 86.21335937 -448.62890625 85.29296875 C-440.39117799 75.99875541 -431.75644597 67.69083358 -422 60 C-421.00097656 59.195625 -420.00195312 58.39125 -418.97265625 57.5625 C-410.73403878 50.9994244 -402.06585092 45.35050331 -393 40 C-392.25395508 39.5551123 -391.50791016 39.11022461 -390.73925781 38.65185547 C-371.75331214 27.42853815 -351.455825 19.12053322 -330 14 C-329.2889209 13.82275391 -328.5778418 13.64550781 -327.84521484 13.46289062 C-322.59031666 12.1571209 -317.31419913 11.03588455 -312 10 C-311.26088379 9.84756836 -310.52176758 9.69513672 -309.76025391 9.53808594 C-289.19142597 5.44465489 -267.86268082 6.72396372 -247 7 C-249.6610748 30.21366326 -263.92468364 50.91696646 -281.34765625 65.9453125 C-290.51923852 73.05024958 -303.13494914 81.96520969 -315.0625 82.6875 C-319 82 -319 82 -321.0859375 79.90625 C-323.22397521 76.65992335 -324.49154843 73.51324755 -325.5625 69.8125 C-325.77302002 69.1006958 -325.98354004 68.3888916 -326.20043945 67.65551758 C-328.42180846 59.49286119 -329.22213516 51.13843568 -330.01196289 42.7355957 C-330.11500732 41.66140381 -330.21805176 40.58721191 -330.32421875 39.48046875 C-330.40760498 38.52035889 -330.49099121 37.56024902 -330.5769043 36.57104492 C-331.00324245 33.98029646 -331.60553521 32.2151081 -333 30 C-336.24325564 28.37837218 -339.49480228 28.43021342 -343 29 C-345.56525469 30.62254625 -347.40416521 32.01507919 -349.5625 34.0625 C-350.15329346 34.59834717 -350.74408691 35.13419434 -351.3527832 35.6862793 C-353.25847016 37.43422315 -355.13033998 39.21362745 -357 41 C-357.63454102 41.59361328 -358.26908203 42.18722656 -358.92285156 42.79882812 C-385.4124238 67.66549492 -404.92076568 101.44986821 -406.21875 138.3515625 C-407.14064686 179.71423519 -392.41785681 217.98246251 -364 248 C-363.18015625 248.88429688 -362.3603125 249.76859375 -361.515625 250.6796875 C-337.31259445 275.95681704 -301.37912009 292.56501671 -266.34375 293.94140625 C-265.2403125 293.96074219 -264.136875 293.98007812 -263 294 C-261.7521875 294.05027344 -260.504375 294.10054688 -259.21875 294.15234375 C-242.13822525 294.66353842 -224.11628148 292.83459197 -208 287 C-207.25331055 286.73058594 -206.50662109 286.46117187 -205.73730469 286.18359375 C-184.36841627 278.35765126 -166.57972494 267.69616593 -150 252 C-149.11570312 251.18015625 -148.23140625 250.3603125 -147.3203125 249.515625 C-130.14028184 233.06562397 -118.66895542 212.36156473 -111 190 C-110.40058594 188.26556641 -110.40058594 188.26556641 -109.7890625 186.49609375 C-102.67264618 163.83592601 -103.64609804 140.45371814 -104 117 C-102.86272461 116.67241699 -101.72544922 116.34483398 -100.55371094 116.00732422 C-99.03055542 115.56492851 -97.50744589 115.12237446 -95.984375 114.6796875 C-95.23849121 114.46530029 -94.49260742 114.25091309 -93.72412109 114.0300293 C-60.27374659 104.27821002 -32.9664349 83.86116542 -15.81762695 53.35522461 C-6.49562962 36.2386954 -2.35803934 19.15499468 0 0 Z " fill="#FE3264" transform="translate(511,137)"/>
<path d="M0 0 C4.73682292 1.34319631 8.57424486 3.70072795 12.75 6.26953125 C13.63051025 6.80570068 14.51102051 7.34187012 15.41821289 7.89428711 C40.83365782 23.61738189 64.79580517 44.60464491 83.375 67.95703125 C84.30902785 69.07993361 85.24533287 70.20094471 86.18359375 71.3203125 C112.36365971 102.82331429 128.63378684 140.51525029 134.375 180.95703125 C134.560625 182.16617188 134.74625 183.3753125 134.9375 184.62109375 C139.7439862 224.43028054 129.52609383 266.4857123 104.82421875 298.30859375 C102.13534423 301.64426793 99.29256829 304.82071369 96.375 307.95703125 C95.81151855 308.56434082 95.24803711 309.17165039 94.66748047 309.79736328 C66.37631486 339.93410642 28.91172757 356.79086022 -12.46484375 358.1796875 C-16.52613915 358.24266386 -20.56669372 358.1168402 -24.625 357.95703125 C-25.69363281 357.94929688 -26.76226562 357.9415625 -27.86328125 357.93359375 C-63.07744385 356.81568383 -96.47036878 339.80592588 -121.625 315.95703125 C-123.06166016 314.61705078 -123.06166016 314.61705078 -124.52734375 313.25 C-144.78460915 293.97969428 -160.57626874 266.59042037 -165.625 238.95703125 C-165.75745117 238.27302246 -165.88990234 237.58901367 -166.02636719 236.88427734 C-173.04220102 199.90531496 -166.45171465 165.24982909 -145.625 133.95703125 C-118.42737897 94.76045977 -118.42737897 94.76045977 -102.37109375 90.3359375 C-98.89566447 90.12472357 -96.93429804 90.71910968 -94.1875 92.83203125 C-91.79302218 96.08852109 -91.41154049 98.24843738 -91.046875 102.2421875 C-89.57505399 117.71382851 -89.57505399 117.71382851 -86.125 132.83203125 C-85.92358398 133.50758057 -85.72216797 134.18312988 -85.51464844 134.87915039 C-83.9408807 139.99063149 -83.9408807 139.99063149 -80.625 143.95703125 C-74.17924141 145.18187455 -68.93773913 143.33862494 -63.25 140.45703125 C-62.51249512 140.09464355 -61.77499023 139.73225586 -61.01513672 139.35888672 C-54.71275823 136.1753246 -49.06558592 132.4685325 -43.625 127.95703125 C-42.72523438 127.23128906 -41.82546875 126.50554687 -40.8984375 125.7578125 C-20.58977129 108.45254059 -9.2592937 83.19271962 -6.625 56.95703125 C-6.39024537 51.72346193 -6.38859652 46.50735126 -6.4375 41.26953125 C-6.43896324 39.93294335 -6.43961606 38.59635432 -6.43945312 37.25976562 C-6.22251087 24.43853034 -6.22251087 24.43853034 -8.625 11.95703125 C-9.0625 8.58203125 -9.0625 8.58203125 -8.625 4.95703125 C-4.22705392 -0.06919285 -4.22705392 -0.06919285 0 0 Z " fill="#FEFEFE" transform="translate(272.625,74.04296875)"/>
<path d="M0 0 C0.33 0 0.66 0 1 0 C1.0917689 33.1641885 1.16214662 66.32834378 1.20426132 99.4926305 C1.20926351 103.41745049 1.21444086 107.34227023 1.21972656 111.26708984 C1.2207758 112.04837532 1.22182505 112.8296608 1.22290608 113.63462159 C1.24026084 126.24704229 1.271771 138.85938926 1.30861118 151.47176638 C1.34615844 164.43536062 1.36826481 177.39891652 1.37635398 190.36256289 C1.38181335 198.3470567 1.39898819 206.33134205 1.43166587 214.31577161 C1.45552259 220.46197513 1.45778541 226.60802326 1.45243073 232.75426674 C1.45352233 235.25824317 1.46135945 237.76222822 1.4768219 240.26615715 C1.59864349 261.02912953 -0.60025836 279.88600697 -9 299 C-9.28327148 299.65419922 -9.56654297 300.30839844 -9.85839844 300.98242188 C-19.80140307 323.50525006 -36.98317968 343.17355818 -58 356 C-59.0725 356.68320312 -60.145 357.36640625 -61.25 358.0703125 C-90.98129887 376.17061714 -126.91308808 379.37554603 -160.4375 371.375 C-193.08851579 362.03125186 -221.88691837 340.04796698 -238.609375 310.44921875 C-245 298.79199703 -245 298.79199703 -245 295 C-244.37657715 294.89977539 -243.7531543 294.79955078 -243.11083984 294.69628906 C-207.33872345 288.8825786 -176.62449421 277.20563402 -150 252 C-149.11570312 251.18015625 -148.23140625 250.3603125 -147.3203125 249.515625 C-130.14028184 233.06562397 -118.66895542 212.36156473 -111 190 C-110.60039062 188.84371094 -110.20078125 187.68742188 -109.7890625 186.49609375 C-102.67264618 163.83592601 -103.64609804 140.45371814 -104 117 C-102.86272461 116.67241699 -101.72544922 116.34483398 -100.55371094 116.00732422 C-99.03055542 115.56492851 -97.50744589 115.12237446 -95.984375 114.6796875 C-95.23849121 114.46530029 -94.49260742 114.25091309 -93.72412109 114.0300293 C-60.27374659 104.27821002 -32.9664349 83.86116542 -15.81762695 53.35522461 C-6.49562962 36.2386954 -2.35803934 19.15499468 0 0 Z " fill="#DC0064" transform="translate(511,137)"/>
<path d="M0 0 C33.34715354 0.73217303 62.84948226 18.8622568 85.44140625 42.125 C90.32882916 47.32038339 94.24080538 52.93455102 98 59 C98.59941406 59.90363281 99.19882812 60.80726562 99.81640625 61.73828125 C117.94437006 90.41047457 120.87784087 125.37294355 114 158 C108.9646353 180.18282287 97.38143613 201.25050401 81 217 C79.8553125 218.175625 79.8553125 218.175625 78.6875 219.375 C77.800625 220.24125 76.91375 221.1075 76 222 C75.3503125 222.64582031 74.700625 223.29164063 74.03125 223.95703125 C56.46113645 240.67792264 34.18452304 249.32582548 11 255 C10.79697266 253.48599609 10.79697266 253.48599609 10.58984375 251.94140625 C5.20919224 214.71608252 -10.17044923 177.35345679 -34.8515625 148.6484375 C-37 146 -37 146 -37 144 C-36.02353516 143.9906543 -35.04707031 143.98130859 -34.04101562 143.97167969 C-30.33535007 143.93108824 -26.63045622 143.86516011 -22.92529297 143.79248047 C-21.33717948 143.7646637 -19.74893764 143.74325909 -18.16064453 143.72900391 C-4.14365694 143.59584696 9.62932924 142.06496839 22.25 135.4375 C22.90347412 135.10161865 23.55694824 134.7657373 24.23022461 134.41967773 C40.74875913 125.46987 52.30941521 109.28591564 57.875 91.5625 C60.3490333 82.80943282 60.2033695 74.01604767 60 65 C59.98324219 64.18144531 59.96648437 63.36289062 59.94921875 62.51953125 C58.87496453 46.1601741 49.23280051 31.29192052 38 20 C37.11441406 19.06220703 37.11441406 19.06220703 36.2109375 18.10546875 C26.5630477 8.6913384 12.84648165 4.05103939 0 1 C0 0.67 0 0.34 0 0 Z " fill="#FE3264" transform="translate(395,0)"/>
</svg>
